<svg xmlns="http://www.w3.org/2000/svg" xmlns:xlink="http://www.w3.org/1999/xlink" width="1920" zoomAndPan="magnify" viewBox="0 0 1440 637.499986" height="850" preserveAspectRatio="xMidYMid meet" version="1.0"><defs><clipPath id="25fab314cf"><path d="M 1072 71 L 1439.433594 71 L 1439.433594 219 L 1072 219 Z M 1072 71 " clip-rule="nonzero"/></clipPath><clipPath id="367d77fecb"><path d="M 0.5625 71 L 365 71 L 365 219 L 0.5625 219 Z M 0.5625 71 " clip-rule="nonzero"/></clipPath></defs><g clip-path="url(#25fab314cf)"><path fill="#4d4d4d" d="M 1072.777344 144.566406 C 1072.777344 185.1875 1105.707031 218.117188 1146.316406 218.117188 C 1146.316406 218.117188 1442.148438 218.117188 1442.148438 218.117188 C 1442.148438 218.117188 1442.148438 71.035156 1442.148438 71.035156 C 1442.148438 71.035156 1146.316406 71.035156 1146.316406 71.035156 C 1105.707031 71.035156 1072.777344 103.953125 1072.777344 144.566406 Z M 1072.777344 144.566406 " fill-opacity="1" fill-rule="nonzero"/></g><path fill="#ffb8b8" d="M 865.8125 143.308594 C 865.8125 192.28125 905.511719 231.984375 954.492188 231.984375 C 1003.464844 231.984375 1043.171875 192.28125 1043.171875 143.308594 C 1043.171875 94.324219 1003.464844 54.628906 954.492188 54.628906 C 905.511719 54.628906 865.8125 94.324219 865.8125 143.308594 Z M 865.8125 143.308594 " fill-opacity="1" fill-rule="nonzero"/><path stroke-linecap="round" transform="matrix(0, -9.058999, -9.058999, 0, 1624.514114, 1059.878415)" fill="none" stroke-linejoin="round" d="M 99.471132 74.567864 C 99.471132 74.567864 99.471132 93.975793 99.471132 93.975793 " stroke="#ffb8b8" stroke-width="5.46" stroke-opacity="1" stroke-miterlimit="4"/><path stroke-linecap="round" transform="matrix(0, -9.058999, -9.058999, 0, 1624.514114, 1059.878415)" fill="none" stroke-linejoin="round" d="M 94.081119 74.318199 C 94.081119 74.318199 94.081119 89.342107 94.081119 89.342107 " stroke="#ffb8b8" stroke-width="5.46" stroke-opacity="1" stroke-miterlimit="4"/><path stroke-linecap="round" transform="matrix(0, -9.058999, -9.058999, 0, 1624.514114, 1059.878415)" fill="none" stroke-linejoin="round" d="M 104.949973 74.318199 C 104.949973 74.318199 104.949973 90.708152 104.949973 90.708152 " stroke="#ffb8b8" stroke-width="5.46" stroke-opacity="1" stroke-miterlimit="4"/><path stroke-linecap="round" transform="matrix(0, -9.058999, -9.058999, 0, 1624.514114, 1059.878415)" fill="none" stroke-linejoin="round" d="M 101.177826 56.664827 C 101.177826 56.664827 101.177826 68.224034 101.177826 68.224034 " stroke="#ffb8b8" stroke-width="10.92" stroke-opacity="1" stroke-miterlimit="4"/><g clip-path="url(#367d77fecb)"><path fill="#ff8c40" d="M 364.632812 144.566406 C 364.632812 185.1875 331.703125 218.117188 291.089844 218.117188 C 291.089844 218.117188 -4.738281 218.117188 -4.738281 218.117188 C -4.738281 218.117188 -4.738281 71.035156 -4.738281 71.035156 C -4.738281 71.035156 291.089844 71.035156 291.089844 71.035156 C 331.703125 71.035156 364.632812 103.953125 364.632812 144.566406 Z M 364.632812 144.566406 " fill-opacity="1" fill-rule="nonzero"/></g><path fill="#ffb8b8" d="M 571.59375 143.308594 C 571.59375 192.28125 531.898438 231.984375 482.914062 231.984375 C 433.941406 231.984375 394.238281 192.28125 394.238281 143.308594 C 394.238281 94.324219 433.941406 54.628906 482.914062 54.628906 C 531.898438 54.628906 571.59375 94.324219 571.59375 143.308594 Z M 571.59375 143.308594 " fill-opacity="1" fill-rule="nonzero"/><path stroke-linecap="round" transform="matrix(0, -9.058999, 9.058999, 0, -187.106694, 1059.878415)" fill="none" stroke-linejoin="round" d="M 99.471132 74.568167 C 99.471132 74.568167 99.471132 93.976095 99.471132 93.976095 " stroke="#ffb8b8" stroke-width="5.46" stroke-opacity="1" stroke-miterlimit="4"/><path stroke-linecap="round" transform="matrix(0, -9.058999, 9.058999, 0, -187.106694, 1059.878415)" fill="none" stroke-linejoin="round" d="M 94.081119 74.31807 C 94.081119 74.31807 94.081119 89.341977 94.081119 89.341977 " stroke="#ffb8b8" stroke-width="5.46" stroke-opacity="1" stroke-miterlimit="4"/><path stroke-linecap="round" transform="matrix(0, -9.058999, 9.058999, 0, -187.106694, 1059.878415)" fill="none" stroke-linejoin="round" d="M 104.949973 74.31807 C 104.949973 74.31807 104.949973 90.708022 104.949973 90.708022 " stroke="#ffb8b8" stroke-width="5.46" stroke-opacity="1" stroke-miterlimit="4"/><path stroke-linecap="round" transform="matrix(0, -9.058999, 9.058999, 0, -187.106694, 1059.878415)" fill="none" stroke-linejoin="round" d="M 101.177826 56.66513 C 101.177826 56.66513 101.177826 68.223905 101.177826 68.223905 " stroke="#ffb8b8" stroke-width="10.92" stroke-opacity="1" stroke-miterlimit="4"/><path fill="#ff7b20" d="M 870.777344 619.78125 C 870.777344 619.78125 483.359375 619.78125 483.359375 619.78125 C 483.359375 619.78125 483.359375 334.179688 483.359375 334.179688 C 483.359375 302.417969 490.382812 271.039062 503.933594 242.3125 C 503.933594 242.3125 538.167969 169.703125 538.167969 169.703125 C 538.167969 169.703125 538.167969 25.351562 538.167969 25.351562 C 538.167969 25.351562 905.691406 25.351562 905.691406 25.351562 C 916.914062 25.351562 926.019531 34.464844 926.019531 45.6875 C 926.019531 45.6875 926.019531 165.863281 926.019531 165.863281 C 926.019531 165.863281 890.492188 243.09375 890.492188 243.09375 C 877.5 271.320312 870.777344 302.039062 870.777344 333.109375 C 870.777344 333.109375 870.777344 619.78125 870.777344 619.78125 Z M 870.777344 619.78125 " fill-opacity="1" fill-rule="nonzero"/><path stroke-linecap="round" transform="matrix(9.058999, 0, 0, 9.058999, 709.528056, 73.616046)" fill-opacity="1" fill="#ff7b20" fill-rule="nonzero" stroke-linejoin="round" d="M 21.494863 -5.855153 C 20.25516 -5.855153 19.244856 -4.855198 19.244856 -3.615064 C 19.244856 -3.615064 19.250893 5.854974 19.250893 5.854974 C 19.250893 5.854974 14.904817 2.855108 14.904817 2.855108 C 14.904817 2.855108 10.785122 5.854974 10.785122 5.854974 C 10.785122 5.854974 6.664996 2.855108 6.664996 2.855108 C 6.664996 2.855108 2.556081 5.854974 2.556081 5.854974 C 2.556081 5.854974 -1.564907 2.855108 -1.564907 2.855108 C -1.564907 2.855108 -5.685033 5.854974 -5.685033 5.854974 C -5.685033 5.854974 -9.80516 2.855108 -9.80516 2.855108 C -9.80516 2.855108 -13.914937 5.854974 -13.914937 5.854974 C -13.914937 5.854974 -18.035063 2.855108 -18.035063 2.855108 C -18.035063 2.855108 -21.49502 5.384965 -21.49502 5.384965 C -21.49502 5.384965 -21.49502 -3.615064 -21.49502 -3.615064 C -21.49502 -4.855198 -20.495065 -5.855153 -19.254931 -5.855153 C -19.254931 -5.855153 21.494863 -5.855153 21.494863 -5.855153 Z M 21.494863 -5.855153 " stroke="#ffffff" stroke-width="0.7" stroke-opacity="1" stroke-miterlimit="4"/><path fill="#ffffff" d="M 673.761719 382.273438 C 673.644531 400.328125 662.121094 410.753906 648.007812 410.664062 C 633.886719 410.566406 622.507812 399.992188 622.625 381.9375 C 622.742188 363.882812 634.320312 345.175781 648.441406 345.269531 C 662.566406 345.367188 673.890625 364.21875 673.761719 382.273438 Z M 673.761719 382.273438 " fill-opacity="1" fill-rule="nonzero"/><path stroke-linecap="butt" transform="matrix(9.058999, 0, 0, 9.058999, 647.772799, 445.75974)" fill-opacity="1" fill="#ffffff" fill-rule="nonzero" stroke-linejoin="miter" d="M 0.0341353 -5.125037 C 0.0341353 -5.125037 -0.0339944 5.124181 -0.0339944 5.124181 " stroke="#ffffff" stroke-width="0.641" stroke-opacity="1" stroke-miterlimit="10"/><path stroke-linecap="butt" transform="matrix(9.058999, 0, 0, 9.058999, 685.875025, 393.027344)" fill-opacity="1" fill="#ffffff" fill-rule="nonzero" stroke-linejoin="miter" d="M -0.0340676 5.271002 C -0.0340676 5.271002 0.0340621 -5.271002 0.0340621 -5.271002 " stroke="#ffffff" stroke-width="0.641" stroke-opacity="1" stroke-miterlimit="10"/><path stroke-linecap="butt" transform="matrix(9.058999, 0, 0, 9.058999, 685.313313, 466.405338)" fill="none" stroke-linejoin="miter" d="M -2.138847 2.829211 C -2.138847 2.829211 -2.138847 -0.689821 -2.138847 -0.689821 C -2.138847 -1.870881 -1.179856 -2.828147 0.00120381 -2.828147 C 1.181832 -2.828147 2.139099 -1.870881 2.139099 -0.689821 C 2.139099 -0.689821 2.139099 2.829211 2.139099 2.829211 " stroke="#ffffff" stroke-width="0.641" stroke-opacity="1" stroke-miterlimit="10"/><path stroke-linecap="butt" transform="matrix(9.058999, 0, 0, 9.058999, -186.425139, -709.027111)" fill="none" stroke-linejoin="miter" d="M 96.230208 132.580935 C 96.230208 132.580935 96.230208 127.152976 96.230208 127.152976 " stroke="#ffffff" stroke-width="0.641" stroke-opacity="1" stroke-miterlimit="10"/><path fill="#ffa278" d="M 961.378906 243.34375 C 961.378906 243.34375 928.746094 171.851562 928.746094 171.851562 C 928.746094 171.851562 896.117188 243.34375 896.117188 243.34375 C 883.308594 271.417969 876.667969 301.921875 876.667969 332.777344 C 876.667969 332.777344 876.667969 619.78125 876.667969 619.78125 C 876.667969 619.78125 980.828125 619.78125 980.828125 619.78125 C 980.828125 619.78125 980.828125 332.777344 980.828125 332.777344 C 980.828125 301.921875 974.195312 271.417969 961.378906 243.34375 Z M 961.378906 243.34375 " fill-opacity="1" fill-rule="nonzero"/><path fill="#ffb8b8" d="M 933.589844 54.902344 C 933.589844 54.902344 850.921875 74.867188 850.921875 74.867188 C 838.347656 77.902344 830.605469 90.578125 833.644531 103.148438 C 836.679688 115.722656 849.351562 123.464844 861.925781 120.429688 C 861.925781 120.429688 944.59375 100.464844 944.59375 100.464844 C 957.167969 97.425781 964.910156 84.753906 961.875 72.179688 C 958.835938 59.609375 946.164062 51.867188 933.589844 54.902344 Z M 933.589844 54.902344 " fill-opacity="1" fill-rule="nonzero"/><path fill="#ffb8b8" d="M 503.816406 54.902344 C 503.816406 54.902344 586.484375 74.867188 586.484375 74.867188 C 599.058594 77.902344 606.800781 90.578125 603.765625 103.148438 C 600.726562 115.722656 588.054688 123.464844 575.480469 120.429688 C 575.480469 120.429688 492.8125 100.464844 492.8125 100.464844 C 480.242188 97.425781 472.496094 84.753906 475.535156 72.179688 C 478.570312 59.609375 491.242188 51.867188 503.816406 54.902344 Z M 503.816406 54.902344 " fill-opacity="1" fill-rule="nonzero"/></svg>