<svg id="visual" viewBox="0 0 600 900" width="600" height="900" xmlns="http://www.w3.org/2000/svg" xmlns:xlink="http://www.w3.org/1999/xlink" version="1.1"><path d="M0 126L25 145.3C50 164.7 100 203.3 150 209.8C200 216.3 250 190.7 300 172.8C350 155 400 145 450 140.8C500 136.7 550 138.3 575 139.2L600 140L600 0L575 0C550 0 500 0 450 0C400 0 350 0 300 0C250 0 200 0 150 0C100 0 50 0 25 0L0 0Z" fill="#fc9d64"></path><path d="M0 166L25 155.3C50 144.7 100 123.3 150 125.3C200 127.3 250 152.7 300 164.5C350 176.3 400 174.7 450 158C500 141.3 550 109.7 575 93.8L600 78L600 0L575 0C550 0 500 0 450 0C400 0 350 0 300 0C250 0 200 0 150 0C100 0 50 0 25 0L0 0Z" fill="#fe8c45"></path><path d="M0 129L25 119.5C50 110 100 91 150 92.5C200 94 250 116 300 109.2C350 102.3 400 66.7 450 57C500 47.3 550 63.7 575 71.8L600 80L600 0L575 0C550 0 500 0 450 0C400 0 350 0 300 0C250 0 200 0 150 0C100 0 50 0 25 0L0 0Z" fill="#ff7b21"></path></svg>