<svg id="visual" viewBox="0 0 900 600" width="900" height="600" xmlns="http://www.w3.org/2000/svg" xmlns:xlink="http://www.w3.org/1999/xlink" version="1.1"><path d="M0 312L21.5 303.2C43 294.3 86 276.7 128.8 258.2C171.7 239.7 214.3 220.3 257.2 219.2C300 218 343 235 385.8 238.8C428.7 242.7 471.3 233.3 514.2 226.5C557 219.7 600 215.3 642.8 230.8C685.7 246.3 728.3 281.7 771.2 294.3C814 307 857 297 878.5 292L900 287L900 0L878.5 0C857 0 814 0 771.2 0C728.3 0 685.7 0 642.8 0C600 0 557 0 514.2 0C471.3 0 428.7 0 385.8 0C343 0 300 0 257.2 0C214.3 0 171.7 0 128.8 0C86 0 43 0 21.5 0L0 0Z" fill="#ffaf7d"></path><path d="M0 260L21.5 249.7C43 239.3 86 218.7 128.8 204.8C171.7 191 214.3 184 257.2 179.5C300 175 343 173 385.8 172.8C428.7 172.7 471.3 174.3 514.2 183.7C557 193 600 210 642.8 205.3C685.7 200.7 728.3 174.3 771.2 169.3C814 164.3 857 180.7 878.5 188.8L900 197L900 0L878.5 0C857 0 814 0 771.2 0C728.3 0 685.7 0 642.8 0C600 0 557 0 514.2 0C471.3 0 428.7 0 385.8 0C343 0 300 0 257.2 0C214.3 0 171.7 0 128.8 0C86 0 43 0 21.5 0L0 0Z" fill="#ffa368"></path><path d="M0 134L21.5 132C43 130 86 126 128.8 123.7C171.7 121.3 214.3 120.7 257.2 132.3C300 144 343 168 385.8 169.7C428.7 171.3 471.3 150.7 514.2 148.7C557 146.7 600 163.3 642.8 175.5C685.7 187.7 728.3 195.3 771.2 197.7C814 200 857 197 878.5 195.5L900 194L900 0L878.5 0C857 0 814 0 771.2 0C728.3 0 685.7 0 642.8 0C600 0 557 0 514.2 0C471.3 0 428.7 0 385.8 0C343 0 300 0 257.2 0C214.3 0 171.7 0 128.8 0C86 0 43 0 21.5 0L0 0Z" fill="#ff9652"></path><path d="M0 148L21.5 145.7C43 143.3 86 138.7 128.8 129.2C171.7 119.7 214.3 105.3 257.2 101.7C300 98 343 105 385.8 112.8C428.7 120.7 471.3 129.3 514.2 129.5C557 129.7 600 121.3 642.8 120C685.7 118.7 728.3 124.3 771.2 128C814 131.7 857 133.3 878.5 134.2L900 135L900 0L878.5 0C857 0 814 0 771.2 0C728.3 0 685.7 0 642.8 0C600 0 557 0 514.2 0C471.3 0 428.7 0 385.8 0C343 0 300 0 257.2 0C214.3 0 171.7 0 128.8 0C86 0 43 0 21.5 0L0 0Z" fill="#ff893b"></path><path d="M0 78L21.5 76.7C43 75.3 86 72.7 128.8 68.3C171.7 64 214.3 58 257.2 55.3C300 52.7 343 53.3 385.8 56.5C428.7 59.7 471.3 65.3 514.2 72.2C557 79 600 87 642.8 86.8C685.7 86.7 728.3 78.3 771.2 72.3C814 66.3 857 62.7 878.5 60.8L900 59L900 0L878.5 0C857 0 814 0 771.2 0C728.3 0 685.7 0 642.8 0C600 0 557 0 514.2 0C471.3 0 428.7 0 385.8 0C343 0 300 0 257.2 0C214.3 0 171.7 0 128.8 0C86 0 43 0 21.5 0L0 0Z" fill="#ff7b21"></path></svg>